<svg width="574" height="505" viewBox="0 0 574 505" fill="none" xmlns="http://www.w3.org/2000/svg">
<g clip-path="url(#clip0_626_830)">
<path fill-rule="evenodd" clip-rule="evenodd" d="M128.549 332.886C128.203 332.829 127.851 332.787 127.514 332.751C122.911 332.392 116.23 332.538 108.439 332.307C89.2854 331.759 63.8345 328.888 44.903 312.356C32.1819 301.252 22.2819 284.008 19.3019 256.976C17.9383 244.44 22.5762 233.167 30.3867 223.525C41.4742 209.803 58.9923 199.431 73.1474 193.383C78.8269 190.965 90.8156 188.279 98.8468 185.752C-68.7542 124.729 -80.4292 -127.379 99.6505 -185.393C101.789 -186.084 104.073 -184.897 104.766 -182.771C105.438 -180.637 104.264 -178.341 102.126 -177.649C-72.4639 -121.392 -58.7294 125.174 107.192 180.04C110.222 181.045 111.421 182.677 111.851 183.793C112.468 185.428 112.329 187.188 110.819 188.902C109.687 190.174 106.527 191.831 102.156 193.228C94.3208 195.749 82.0552 198.424 76.3119 200.869C63.2326 206.449 46.9454 215.944 36.6994 228.624C30.2697 236.569 26.2524 245.773 27.3742 256.073C30.0585 280.492 38.7575 296.192 50.2512 306.234C67.6376 321.412 91.1119 323.666 108.692 324.19C118.071 324.452 125.89 324.236 130.572 324.91C133.71 325.362 135.823 326.371 136.961 327.518C137.539 328.114 138.579 329.538 138.002 331.837C137.436 334.07 132.342 343.07 131.66 344.655C113.164 388.057 132.356 429.58 169.785 454.944C232.512 497.443 287.115 481.425 309.648 441.832C329.357 407.213 324.328 355.465 279.755 310.271C278.215 308.99 276.659 307.703 275.098 306.43C269.827 302.121 256.332 290.639 254.64 288.836C252.277 286.327 253.892 283.775 254.152 283.408C254.801 282.533 255.991 281.373 258.234 281.819C258.447 281.856 259.518 282.199 261.263 283.495C270.26 290.214 278.253 297.183 285.303 304.303C293.403 311.017 301.428 317.787 309.846 324.123C344.396 350.096 381.018 374.486 422.813 386.874C470.49 401.023 538.905 401.402 589.372 380.509C614.085 370.276 634.473 354.948 645.657 333.396C656.849 311.866 658.721 284.222 646.918 249.556C646.188 247.433 647.332 245.124 649.453 244.39C651.574 243.656 653.877 244.798 654.606 246.921C667.297 284.217 664.894 313.968 652.855 337.138C640.832 360.314 619.042 377.013 592.458 388.014C540.347 409.594 469.723 409.278 420.494 394.673C379.203 382.425 342.823 358.843 308.558 333.324C334.093 373.871 333.718 415.959 316.698 445.846C292.273 488.775 233.227 507.748 165.22 461.676C124.484 434.08 104.063 388.725 124.192 341.471C124.597 340.547 126.926 335.999 128.549 332.886Z" fill="url(#paint0_linear_626_830)"/>
</g>
<defs>
<linearGradient id="paint0_linear_626_830" x1="-258" y1="238.5" x2="38.7156" y2="-212" gradientUnits="userSpaceOnUse">
<stop offset="0.151042" stop-color="#F05757"/>
<stop offset="0.696957" stop-color="white" stop-opacity="0"/>
</linearGradient>
<clipPath id="clip0_626_830">
<rect width="574" height="505" fill="white"/>
</clipPath>
</defs>
</svg>
