<svg width="10" height="18" viewBox="0 0 10 18" fill="none" xmlns="http://www.w3.org/2000/svg">
<path d="M4.94267 17.1019C3.94267 16.0019 2.44262 14.6019 1.14262 13.0019C0.842623 12.6019 1.04267 12.0019 1.44267 11.6019C1.84267 11.2019 2.34264 11.0019 2.84264 11.3019C4.74264 12.3019 6.14262 13.8019 7.14262 15.6019C7.34262 16.0019 7.34264 16.6019 6.84264 17.0019C6.44264 17.4019 6.04267 17.6019 4.94267 17.1019Z" fill="#EB604F"/>
<path d="M3.84265 10.0019C3.34265 9.80188 2.74264 9.60188 2.14264 9.30188C1.64264 9.00188 1.44264 8.50188 1.64264 8.00188C1.74264 7.70188 2.14269 7.30188 2.44269 7.20188C4.54269 6.80188 6.54266 7.50189 8.54266 8.10189C9.04266 8.30189 9.24268 8.90188 9.24268 9.40188C9.14268 10.2019 8.54265 10.6019 7.84265 10.6019C6.54265 10.5019 5.24265 10.2019 3.84265 10.0019Z" fill="#EB604F"/>
<path d="M5.14264 0.501844C5.54264 0.801844 5.84265 1.20185 5.84265 1.80185C5.84265 3.20185 4.24269 5.20185 2.94269 5.60185C2.34269 5.80185 1.94266 5.60185 1.54266 5.20185C1.24266 4.80185 0.942651 4.30185 1.34265 3.80185C2.04265 2.80185 2.94268 1.80185 3.74268 0.801847C4.04268 0.401847 4.64264 0.401844 5.14264 0.501844Z" fill="#EB604F"/>
</svg>
