<svg width="80" height="79" viewBox="0 0 80 79" fill="none" xmlns="http://www.w3.org/2000/svg">
<g clip-path="url(#clip0_549_948)">
<path fill-rule="evenodd" clip-rule="evenodd" d="M63.9926 20.3804C58.4983 45.0966 37.8995 60.3204 13.0787 54.2719C12.2524 54.0705 11.4192 54.5768 11.2153 55.3943C11.0149 56.2244 11.5215 57.0588 12.3478 57.2603C38.9557 63.7552 61.1079 47.5372 66.9998 21.0531C67.1851 20.2273 66.6596 19.398 65.8293 19.2113C65.0025 19.0371 64.178 19.5546 63.9926 20.3804Z" fill="black"/>
<path d="M28.5082 39.9882C30.8926 39.3162 32.2808 36.8387 31.6089 34.4543C30.937 32.07 28.4594 30.6818 26.075 31.3537C23.6907 32.0256 22.3025 34.5032 22.9744 36.8875C23.6463 39.2719 26.1239 40.6601 28.5082 39.9882Z" fill="black"/>
<path d="M45.0833 30.3598C47.4211 29.701 48.7822 27.2719 48.1234 24.9341C47.4646 22.5964 45.0354 21.2353 42.6977 21.8941C40.3599 22.5529 38.9989 24.982 39.6577 27.3198C40.3164 29.6575 42.7456 31.0186 45.0833 30.3598Z" fill="black"/>
</g>
<defs>
<clipPath id="clip0_549_948">
<rect width="63.8953" height="63.8953" fill="white" transform="translate(0.3125 17.4355) rotate(-15.7378)"/>
</clipPath>
</defs>
</svg>
