<svg width="21" height="21" viewBox="0 0 21 21" fill="none" xmlns="http://www.w3.org/2000/svg">
<path d="M10.4 20.7C10.1 20.6 9.90004 20.3 9.70004 20C9.40004 19.4 9.30004 18.8 9.10004 18.2C8.80004 16.9 8.50002 15.6 8.30002 14.3C8.20002 13.6 7.80004 13.1 7.10004 12.8C5.50004 12 3.90004 11.6 2.20004 11C1.70004 10.8 0.900024 10.8 0.900024 10C0.900024 9.30001 1.60004 9.20001 2.20004 9.10001C3.70004 8.70001 5.10004 8.2 6.60004 7.8C7.20004 7.6 7.50004 7.30002 7.70004 6.60002C8.20004 4.50002 9.40002 2.7 10.4 0.799997C10.6 0.399997 10.9 1.49775e-05 11.5 0.100015C12 0.200015 12.2 0.700015 12.2 1.10001C12.3 2.30001 12.4 3.50002 12.5 4.70002C12.8 7.50002 12.8 7.5 15.4 8.4C16.6 8.8 17.8 9.30002 19 9.70002C19.3 9.80002 19.5 9.90001 19.8 10.1C20.5 10.6 20.5 11.4 19.8 12C19.4 12.3 18.9 12.5 18.4 12.6C17.1 12.9 15.8 13.3 14.4 13.5C13.6 13.7 13.2 14 12.9 14.8C12.3 16.3 12.1 17.8 11.5 19.3C11.4 19.6 11.2 20 11.1 20.3C11.1 20.6 10.8 20.7 10.4 20.7Z" fill="#ECA508"/>
</svg>
