<svg width="8" height="8" viewBox="0 0 8 8" fill="none" xmlns="http://www.w3.org/2000/svg">
<path d="M1.59996 1.1C1.89996 1.1 1.99996 1.29999 2.19996 1.49999C2.49996 1.79999 2.69995 2.19999 2.99995 2.49999C3.09995 2.59999 3.19994 2.8 3.39994 2.7C3.49994 2.7 3.49995 2.49999 3.49995 2.39999C3.59995 1.89999 3.59996 1.39999 3.69996 0.899986C3.79996 0.599986 3.89994 0.299986 4.29994 0.399986C4.59994 0.499986 4.69996 0.699999 4.69996 1.1C4.69996 1.5 4.49996 2.19998 4.69996 2.29998C5.09996 2.39998 5.39996 1.79999 5.69996 1.49999C5.79996 1.49999 5.79994 1.39998 5.89994 1.29998C6.19994 1.09998 6.49994 0.799999 6.79994 1.1C7.19994 1.4 6.89996 1.8 6.69996 2.1C6.29996 2.5 5.89995 2.99998 5.49995 3.29998C5.09995 3.69998 4.99995 3.99999 5.49995 4.39999C5.99995 4.79999 6.39994 5.2 6.79994 5.7C6.99994 5.9 7.19995 6.19999 6.99995 6.49999C6.69995 6.79999 6.39996 6.69999 6.09996 6.49999C5.89996 6.39999 5.69995 6.19999 5.49995 5.99999C5.09995 5.69999 4.89994 5 4.39994 5.2C3.99994 5.4 4.29994 5.99999 4.29994 6.49999C4.29994 6.69999 4.29994 6.79999 4.29994 6.99999C4.29994 7.29999 4.19994 7.7 3.79994 7.7C3.39994 7.7 3.29996 7.39999 3.19996 6.99999C3.09996 6.49999 3.39995 5.79999 2.99995 5.49999C2.59995 5.19999 2.09996 5.79999 1.59996 5.89999C1.19996 5.99999 0.899937 6 0.799937 5.6C0.699937 5.3 0.899961 5.09999 1.19996 4.89999C1.29996 4.89999 1.29994 4.79998 1.39994 4.79998C2.79994 4.09998 2.79994 4.09998 1.79994 2.79998C1.59994 2.49998 1.29996 2.09998 1.09996 1.79998C0.899955 1.39998 1.19996 1.1 1.59996 1.1Z" fill="#ECA508"/>
</svg>
